<svg width="748" height="547" viewBox="0 0 748 547" fill="none" xmlns="http://www.w3.org/2000/svg">
  <!-- Fundal / Container Canvas principal -->
  <rect width="748" height="547" rx="20" fill="#F4F8FF"/>
  
  <!-- Umbră și fereastra principală Dashboard -->
  <rect x="28" y="24" width="692" height="499" rx="16" fill="#FFFFFF" stroke="#E2EDFB" stroke-width="2"/>

  <!-- Header Fereastră (Navigation Bar App) -->
  <path d="M28 40C28 31.1634 35.1634 24 44 24H704C712.837 24 720 31.1634 720 40V72H28V40Z" fill="#043873"/>
  
  <!-- Butoane Window Controls -->
  <circle cx="56" cy="48" r="6" fill="#FF5F56"/>
  <circle cx="74" cy="48" r="6" fill="#FFE492"/>
  <circle cx="92" cy="48" r="6" fill="#27C93F"/>

  <!-- Titlu / Search Header -->
  <rect x="124" y="38" width="180" height="20" rx="6" fill="#1B4F8A"/>
  <rect x="580" y="36" width="116" height="24" rx="12" fill="#4F9CF9"/>
  <circle cx="594" cy="48" r="6" fill="#FFFFFF"/>
  <rect x="606" y="45" width="60" height="6" rx="3" fill="#FFFFFF"/>

  <!-- Sidebar Stânga -->
  <rect x="28" y="72" width="160" height="451" fill="#F8FAFC"/>
  <rect x="48" y="96" width="120" height="32" rx="8" fill="#4F9CF9" opacity="0.15"/>
  <rect x="76" y="107" width="76" height="10" rx="5" fill="#4F9CF9"/>
  <rect x="56" y="104" width="14" height="14" rx="3" fill="#4F9CF9"/>

  <!-- Meniu Sidebar -->
  <rect x="56" y="152" width="14" height="14" rx="3" fill="#94A3B8"/>
  <rect x="76" y="154" width="84" height="10" rx="5" fill="#64748B"/>
  
  <rect x="56" y="188" width="14" height="14" rx="3" fill="#94A3B8"/>
  <rect x="76" y="190" width="70" height="10" rx="5" fill="#64748B"/>
  
  <rect x="56" y="224" width="14" height="14" rx="3" fill="#94A3B8"/>
  <rect x="76" y="226" width="90" height="10" rx="5" fill="#64748B"/>

  <!-- Zonă de Conținut Principal (Main Work Area) -->
  <!-- Header Secțiune Proiect -->
  <text x="216" y="112" font-family="system-ui, sans-serif" font-weight="700" font-size="18" fill="#043873">Project Roadmap &amp; Tasks</text>
  <rect x="216" y="124" width="160" height="8" rx="4" fill="#CBD5E1"/>

  <!-- Filtre & Avatare Echipă -->
  <circle cx="640" cy="110" r="14" fill="#4F9CF9"/>
  <circle cx="664" cy="110" r="14" fill="#FFE492"/>
  <circle cx="688" cy="110" r="14" fill="#043873"/>

  <!-- Coloana 1: TO DO -->
  <rect x="216" y="152" width="154" height="340" rx="10" fill="#F1F5F9"/>
  <rect x="228" y="164" width="60" height="12" rx="6" fill="#64748B"/>
  <rect x="336" y="164" width="22" height="12" rx="6" fill="#E2E8F0"/>

  <!-- Card 1 (To Do) -->
  <rect x="224" y="188" width="138" height="96" rx="8" fill="#FFFFFF" stroke="#E2E8F0"/>
  <rect x="234" y="198" width="45" height="14" rx="4" fill="#FFE492"/>
  <rect x="234" y="220" width="110" height="8" rx="4" fill="#1E293B"/>
  <rect x="234" y="234" width="80" height="8" rx="4" fill="#94A3B8"/>
  <circle cx="344" cy="266" r="8" fill="#94A3B8"/>

  <!-- Card 2 (To Do) -->
  <rect x="224" y="292" width="138" height="86" rx="8" fill="#FFFFFF" stroke="#E2E8F0"/>
  <rect x="234" y="302" width="55" height="14" rx="4" fill="#E2EDFB"/>
  <rect x="234" y="324" width="100" height="8" rx="4" fill="#1E293B"/>
  <rect x="234" y="338" width="65" height="8" rx="4" fill="#94A3B8"/>

  <!-- Coloana 2: IN PROGRESS -->
  <rect x="382" y="152" width="154" height="340" rx="10" fill="#F1F5F9"/>
  <rect x="394" y="164" width="80" height="12" rx="6" fill="#4F9CF9"/>
  <rect x="502" y="164" width="22" height="12" rx="6" fill="#E2EDFB"/>

  <!-- Card 1 (In Progress) -->
  <rect x="390" y="188" width="138" height="120" rx="8" fill="#FFFFFF" stroke="#4F9CF9" stroke-width="1.5"/>
  <rect x="400" y="198" width="50" height="14" rx="4" fill="#4F9CF9"/>
  <rect x="400" y="220" width="118" height="8" rx="4" fill="#043873"/>
  <rect x="400" y="234" width="90" height="8" rx="4" fill="#64748B"/>
  <!-- Bară de progres Task -->
  <rect x="400" y="260" width="118" height="6" rx="3" fill="#E2E8F0"/>
  <rect x="400" y="260" width="85" height="6" rx="3" fill="#4F9CF9"/>
  <circle cx="510" cy="290" r="8" fill="#4F9CF9"/>

  <!-- Card 2 (In Progress) -->
  <rect x="390" y="316" width="138" height="86" rx="8" fill="#FFFFFF" stroke="#E2E8F0"/>
  <rect x="400" y="326" width="60" height="14" rx="4" fill="#FFE492"/>
  <rect x="400" y="348" width="100" height="8" rx="4" fill="#1E293B"/>

  <!-- Coloana 3: COMPLETED -->
  <rect x="548" y="152" width="154" height="340" rx="10" fill="#F1F5F9"/>
  <rect x="560" y="164" width="70" height="12" rx="6" fill="#27C93F"/>
  <rect x="668" y="164" width="22" height="12" rx="6" fill="#DCFCE7"/>

  <!-- Card 1 (Done) -->
  <rect x="556" y="188" width="138" height="96" rx="8" fill="#FFFFFF" stroke="#E2E8F0"/>
  <rect x="566" y="198" width="45" height="14" rx="4" fill="#DCFCE7"/>
  <rect x="566" y="220" width="105" height="8" rx="4" fill="#1E293B"/>
  <path d="M566 244L572 250L584 238" stroke="#27C93F" stroke-width="2" stroke-linecap="round" stroke-linejoin="round"/>
  <circle cx="676" cy="266" r="8" fill="#27C93F"/>

  <!-- Widget Flotant: Task Analytics / Stats Badge -->
  <g filter="url(#shadow)">
    <rect x="460" y="380" width="210" height="90" rx="12" fill="#043873"/>
    <text x="478" y="406" font-family="system-ui, sans-serif" font-weight="600" font-size="12" fill="#FFE492">Team Productivity</text>
    <text x="478" y="434" font-family="system-ui, sans-serif" font-weight="700" font-size="22" fill="#FFFFFF">+84%</text>
    <text x="545" y="432" font-family="system-ui, sans-serif" font-weight="400" font-size="11" fill="#93C5FD">tasks completed</text>
    <path d="M600 445 C 620 430, 630 435, 650 410" stroke="#FFE492" stroke-width="3" stroke-linecap="round" fill="none"/>
  </g>

  <defs>
    <filter id="shadow" x="440" y="365" width="250" height="130" filterUnits="userSpaceOnUse">
      <feDropShadow dx="0" dy="10" stdDeviation="10" flood-color="#043873" flood-opacity="0.25"/>
    </filter>
  </defs>
</svg>
